#!OML:ASF X:\für Bonn\!DataBase\2005_08_10_Bjorn_Final\c3d\bjorn.ASF
:FULLY-SPECIFIED
:DEGREES
106
root 1.17094 17.8052 0.172169 -230.264 7.43689 171.702
lowerback 7.20317 3.25928 2.21912
upperback 15.4307 9.11738 -7.29645
thorax 14.9425 7.18944 -8.49321
lowerneck 1.30902 11.5625 -3.18331
upperneck 17.8875 14.8548 -6.16465
head 5.45625 5.80472 -0.846858
rclavicle -1.43125e-014 6.52014e-014
rhumerus 7.363 7.09214 -52.9053
rradius 47.5856
rwrist 1.63426
rhand -15.4027 22.4093
rfingers 7.12502
rthumb 10.7764 -7.29422
lclavicle -1.43125e-014 6.52014e-014
lhumerus -361.782 -1.22412 -307.76
lradius 62.1759
lwrist -11.1912
lhand -54.5325 -7.32418
lfingers 7.12502
lthumb -26.9329 20.7766
rfemur 29.1293 -0.291797 6.25079
rtibia 53.2254
rfoot -0.260977 26.1476
rtoes -7.66425
lfemur -50.6601 14.8915 -6.35678
ltibia 34.1236
lfoot 28.5836 -2.86666
ltoes -12.157
107
root 1.16645 17.7654 0.214052 -229.605 6.87538 172.247
lowerback 6.77646 3.13441 2.20881
upperback 15.2455 8.84984 -7.31659
thorax 14.9 7.00319 -8.50364
lowerneck 0.49979 11.7276 -3.75646
upperneck 17.1078 15.2388 -6.24452
head 5.32016 6.02568 -0.736111
rclavicle 7.55382e-015 -6.36111e-015
rhumerus 6.8378 5.71564 -53.1758
rradius 47.1932
rwrist 2.3661
rhand -15.2738 22.2037
rfingers 7.12502
rthumb 10.9006 -7.4934
lclavicle 7.55382e-015 -6.36111e-015
lhumerus -360.24 -1.37501 -307.32
lradius 62.0088
lwrist -11.9662
lhand -54.7038 -7.64482
lfingers 7.12502
lthumb -27.0969 20.4305
rfemur 28.8125 -1.0166 6.47805
rtibia 53.2617
rfoot -2.17623 25.9681
rtoes -9.15673
lfemur -49.8797 14.2419 -6.99148
ltibia 34.8081
lfoot 28.6815 -1.87309
ltoes -7.99864
108
root 1.16228 17.7274 0.259576 -228.933 6.31193 172.777
lowerback 6.38417 3.01366 2.14863
upperback 15.078 8.59792 -7.32743
thorax 14.8542 6.82222 -8.47735
lowerneck -0.369605 11.8898 -4.40138
upperneck 16.4229 15.6166 -6.27878
head 5.21394 6.23107 -0.598143
rclavicle -7.196e-014 3.49861e-014
rhumerus 6.41552 4.51765 -53.2009
rradius 46.6042
rwrist 3.06628
rhand -15.2447 22.0608
rfingers 7.12502
rthumb 10.9287 -7.63479
lclavicle -7.196e-014 3.49861e-014
lhumerus -358.684 -1.70344 -306.832
lradius 61.988
lwrist -12.7689
lhand -54.9603 -7.96895
lfingers 7.12502
lthumb -27.3422 20.0679
rfemur 28.4877 -1.667 6.7671
rtibia 53.2335
rfoot -3.74556 25.6369
rtoes -9.35573
lfemur -49.0562 13.6301 -7.63019
ltibia 35.3714
lfoot 27.8913 -0.299555
ltoes -5.04793
109
root 1.15818 17.6949 0.311653 -228.358 5.8019 173.232
lowerback 6.08434 2.9079 1.95119
upperback 14.9743 8.37127 -7.24959
thorax 14.7966 6.6328 -8.27459
lowerneck -1.34834 12.0662 -5.20502
upperneck 15.9268 16.025 -6.29481
head 5.17067 6.41782 -0.422162
rclavicle -6.75868e-015 4.13472e-014
rhumerus 6.09746 3.68557 -52.7976
rradius 45.9101
rwrist 3.46993
rhand -15.3567 22.0592
rfingers 7.12502
rthumb 10.8207 -7.64203
lclavicle -6.75868e-015 4.13472e-014
lhumerus -357.107 -2.13309 -306.217
lradius 62.0671
lwrist -13.1783
lhand -55.1566 -8.66145
lfingers 7.12502
lthumb -27.5299 19.3457
rfemur 28.2187 -2.18252 7.0734
rtibia 53.1322
rfoot -5.015 25.2716
rtoes -8.71361
lfemur -48.1137 13.1375 -8.27335
ltibia 35.913
lfoot 26.2611 1.04553
ltoes -3.82788
110
root 1.15505 17.6692 0.370363 -227.747 5.33579 173.738
lowerback 5.74991 2.79574 1.74179
upperback 14.8974 8.12447 -7.10622
thorax 14.7769 6.42293 -7.98824
lowerneck -2.0515 12.1902 -5.82693
upperneck 15.1577 16.3435 -6.67456
head 5.03873 6.56957 -0.407853
rclavicle 7.15625e-014 -1.97194e-013
rhumerus 5.86969 3.13451 -52.1332
rradius 45.103
rwrist 3.6839
rhand -15.5203 22.1886
rfingers 7.12502
rthumb 10.6629 -7.52083
lclavicle 7.15625e-014 -1.97194e-013
lhumerus -355.473 -2.63989 -305.561
lradius 62.3035
lwrist -13.3055
lhand -55.2011 -8.98588
lfingers 7.12502
lthumb -27.5725 19.0145
rfemur 27.925 -2.76771 7.41194
rtibia 52.9573
rfoot -6.10382 24.9395
rtoes -7.70971
lfemur -47.2533 12.7375 -8.87495
ltibia 36.5165
lfoot 24.0814 1.93095
ltoes -5.22321
